<svg width="56" height="56" viewBox="0 0 56 56" fill="none" xmlns="http://www.w3.org/2000/svg">
<rect width="56" height="56" rx="10" fill="white"/>
<path d="M28.5 44H13V14.4762C13 14.4762 15.9524 13 20.75 13C25.5476 13 28.5 14.4762 28.5 14.4762V44ZM28.5 44V29.2381H28.869C28.869 29.2381 31.4524 30.7143 36.25 30.7143C41.0476 30.7143 43.631 29.2381 43.631 29.2381H44V44H28.5ZM13 24.8095C13 24.8095 15.9524 23.3333 20.75 23.3333C25.5476 23.3333 28.5 24.8095 28.5 24.8095M16.6905 17.4286V20.381M16.6905 27.0238V29.9762M38.0952 30.639V25.1786C38.0952 24.6892 37.9008 24.2198 37.5548 23.8738C37.2087 23.5277 36.7394 23.3333 36.25 23.3333C35.7606 23.3333 35.2913 23.5277 34.9452 23.8738C34.5992 24.2198 34.4048 24.6892 34.4048 25.1786V25.5476" stroke="#57B7C0" stroke-width="2"/>
</svg>
